<svg xmlns="http://www.w3.org/2000/svg" viewBox="0 0 34.5 34.83"><title>bishop-white</title><path d="M8.5,36c3.4-1,10.1.4,13.5-2,3.4,2.4,10.1,1,13.5,2a7.06,7.06,0,0,1,3,2c-0.7,1-1.7,1-3,.5-3.4-1-10.1.5-13.5-1-3.4,1.5-10.1,0-13.5,1-1.4.5-2.3,0.5-3-.5A4.47,4.47,0,0,1,8.5,36Z" transform="translate(-4.75 -4.75)" style="fill:#fff;stroke:#000;stroke-linejoin:round;stroke-width:1.5px"/><path d="M14.5,32c2.5,2.5,12.5,2.5,15,0,0.5-1.5,0-2,0-2,0-2.5-2.5-4-2.5-4,5.5-1.5,6-11.5-5-15.5-11,4-10.5,14-5,15.5,0,0-2.5,1.5-2.5,4C14.5,30,14,30.5,14.5,32Z" transform="translate(-4.75 -4.75)" style="fill:#fff;stroke:#000;stroke-linejoin:round;stroke-width:1.5px"/><path d="M24.5,8A2.5,2.5,0,1,1,22,5.5,2.48,2.48,0,0,1,24.5,8Z" transform="translate(-4.75 -4.75)" style="fill:#fff;stroke:#000;stroke-linejoin:round;stroke-width:1.5px"/><path d="M17,26H27M14.5,30h15M22,15.5v5M19.5,18h5" transform="translate(-4.75 -4.75)" style="fill:none;stroke:#000;stroke-linecap:round;stroke-width:1.5px"/></svg>