<svg xmlns="http://www.w3.org/2000/svg" viewBox="0 0 34.5 34.83"><title>bishop-black</title><path d="M9,36.34c3.4-1,10.1.4,13.5-2,3.4,2.4,10.1,1,13.5,2a7.06,7.06,0,0,1,3,2c-0.7,1-1.7,1-3,.5-3.4-1-10.1.5-13.5-1-3.4,1.5-10.1,0-13.5,1-1.4.5-2.3,0.5-3-.5A4.47,4.47,0,0,1,9,36.34Z" transform="translate(-5.22 -5.09)" style="stroke:#000;stroke-linejoin:round;stroke-width:1.5px"/><path d="M15,32.34c2.5,2.5,12.5,2.5,15,0,0.5-1.5,0-2,0-2,0-2.5-2.5-4-2.5-4,5.5-1.5,6-11.5-5-15.5-11,4-10.5,14-5,15.5,0,0-2.5,1.5-2.5,4C15,30.34,14.47,30.84,15,32.34Z" transform="translate(-5.22 -5.09)" style="stroke:#000;stroke-linejoin:round;stroke-width:1.5px"/><path d="M25,8.34a2.5,2.5,0,1,1-2.5-2.5A2.48,2.48,0,0,1,25,8.34Z" transform="translate(-5.22 -5.09)" style="stroke:#000;stroke-linejoin:round;stroke-width:1.5px"/><path d="M17.47,26.34h10m-12.5,4H30m-7.5-14.5v5M20,18.34h5" transform="translate(-5.22 -5.09)" style="fill:none;stroke:#fff;stroke-linecap:round;stroke-width:1.5px"/></svg>