<svg xmlns="http://www.w3.org/2000/svg" viewBox="0 0 33.53 33.5"><title>knight-white</title><path d="M22,10c10.5,1,16.5,8,16,29H15c0-9,10-6.5,8-21" transform="translate(-5.24 -6.25)" style="fill:#fff;stroke:#000;stroke-linecap:round;stroke-linejoin:round;stroke-width:1.5px"/><path d="M24,18c0.4,2.9-5.5,7.4-8,9-3,2-2.8,4.3-5,4-1-.9,1.4-3,0-3-1,0,.2,1.2-1,2-1,0-4,1-4-4,0-2,6-12,6-12s1.9-1.9,2-3.5a4.59,4.59,0,0,1-.5-3c1-1,3,2.5,3,2.5h2A6.82,6.82,0,0,1,21,7c1,0,1,3,1,3" transform="translate(-5.24 -6.25)" style="fill:#fff;stroke:#000;stroke-linecap:round;stroke-linejoin:round;stroke-width:1.5px"/><path d="M9.49,25.5A0.5,0.5,0,1,1,9,25,0.47,0.47,0,0,1,9.49,25.5Z" transform="translate(-5.24 -6.25)" style="stroke:#000;stroke-linecap:round;stroke-linejoin:round;stroke-width:1.5px"/><path d="M14.89,15.8c-0.4.7-.9,1.2-1.2,1a1.57,1.57,0,0,1,.3-1.5c0.4-.7.9-1.2,1.2-1C15.49,14.3,15.29,15,14.89,15.8Z" transform="translate(-5.24 -6.25)" style="stroke:#000;stroke-linecap:round;stroke-linejoin:round;stroke-width:1.5px"/></svg>