<svg xmlns="http://www.w3.org/2000/svg" viewBox="0 0 38.5 35.25"><title>queen-white</title><path d="M8,12a2,2,0,1,1-2-2A2,2,0,0,1,8,12Z" transform="translate(-3.25 -4.75)" style="fill:#fff;stroke:#000;stroke-linecap:round;stroke-linejoin:round;stroke-width:1.5px"/><path d="M24.5,7.5a2,2,0,1,1-2-2A2,2,0,0,1,24.5,7.5Z" transform="translate(-3.25 -4.75)" style="fill:#fff;stroke:#000;stroke-linecap:round;stroke-linejoin:round;stroke-width:1.5px"/><path d="M41,12a2,2,0,1,1-2-2A2,2,0,0,1,41,12Z" transform="translate(-3.25 -4.75)" style="fill:#fff;stroke:#000;stroke-linecap:round;stroke-linejoin:round;stroke-width:1.5px"/><path d="M16,8.5a2,2,0,1,1-2-2A2,2,0,0,1,16,8.5Z" transform="translate(-3.25 -4.75)" style="fill:#fff;stroke:#000;stroke-linecap:round;stroke-linejoin:round;stroke-width:1.5px"/><path d="M33,9a2,2,0,1,1-2-2A2,2,0,0,1,33,9Z" transform="translate(-3.25 -4.75)" style="fill:#fff;stroke:#000;stroke-linecap:round;stroke-linejoin:round;stroke-width:1.5px"/><path d="M9,26c8.5-1.5,21-1.5,27,0l2-12L31,25V11L25.5,24.5l-3-15-3,15L14,10.5V25L7,14Z" transform="translate(-3.25 -4.75)" style="fill:#fff;stroke:#000;stroke-linejoin:round;stroke-width:1.5px"/><path d="M9,26c0,2,1.5,2,2.5,4,1,1.5,1,1,.5,3.5A3.23,3.23,0,0,0,10.5,36C9,37.5,11,38.5,11,38.5a88.54,88.54,0,0,0,23,0s1.5-1,0-2.5a2.22,2.22,0,0,0-1-2.5c-0.5-2.5-.5-2,0.5-3.5,1-2,2.5-2,2.5-4A81.56,81.56,0,0,0,9,26Z" transform="translate(-3.25 -4.75)" style="fill:#fff;stroke:#000;stroke-linejoin:round;stroke-width:1.5px"/><path d="M11.5,30c3.5-1,18.5-1,22,0" transform="translate(-3.25 -4.75)" style="fill:none;stroke:#000;stroke-linecap:round;stroke-linejoin:round;stroke-width:1.5px"/><path d="M12,33.5a73.88,73.88,0,0,1,21,0" transform="translate(-3.25 -4.75)" style="fill:none;stroke:#000;stroke-linecap:round;stroke-linejoin:round;stroke-width:1.5px"/></svg>