<svg xmlns="http://www.w3.org/2000/svg" viewBox="0 0 38.6 36"><title>queen-black</title><circle cx="2.8" cy="6.8" r="2.8"/><circle cx="10.8" cy="3.8" r="2.8"/><circle cx="19.3" cy="2.8" r="2.8"/><circle cx="27.8" cy="3.8" r="2.8"/><circle cx="35.8" cy="6.8" r="2.8"/><path d="M9,25.36c8.5-1.5,21-1.5,27,0l2.5-12.5L31,24.36l-0.3-14.1-5.2,13.6-3-14.5-3,14.5-5.2-13.6L14,24.36,6.5,12.86Z" transform="translate(-3.2 -4.56)" style="stroke:#000;stroke-linejoin:round;stroke-width:1.5px"/><path d="M9,25.36c0,2,1.5,2,2.5,4,1,1.5,1,1,.5,3.5a3.23,3.23,0,0,0-1.5,2.5c-1.5,1.5.5,2.5,0.5,2.5a88.54,88.54,0,0,0,23,0s1.5-1,0-2.5a2.22,2.22,0,0,0-1-2.5c-0.5-2.5-.5-2,0.5-3.5,1-2,2.5-2,2.5-4A81.56,81.56,0,0,0,9,25.36Z" transform="translate(-3.2 -4.56)" style="stroke:#000;stroke-linejoin:round;stroke-width:1.5px"/><path d="M11,37.86a34.89,34.89,0,0,0,23,0" transform="translate(-3.2 -4.56)" style="fill:none;stroke:#000;stroke-linejoin:round;stroke-width:1.5px"/><path d="M11,28.36a34.89,34.89,0,0,1,23,0" transform="translate(-3.2 -4.56)" style="fill:none;stroke:#fff;stroke-linecap:round;stroke-linejoin:round;stroke-width:1.5px"/><path d="M12.5,30.86h20" transform="translate(-3.2 -4.56)" style="fill:none;stroke:#fff;stroke-linecap:round;stroke-linejoin:round;stroke-width:1.5px"/><path d="M11.5,33.86a34.51,34.51,0,0,0,22,0" transform="translate(-3.2 -4.56)" style="fill:none;stroke:#fff;stroke-linecap:round;stroke-linejoin:round;stroke-width:1.5px"/><path d="M10.5,36.86a35.34,35.34,0,0,0,24,0" transform="translate(-3.2 -4.56)" style="fill:none;stroke:#fff;stroke-linecap:round;stroke-linejoin:round;stroke-width:1.5px"/></svg>