<svg xmlns="http://www.w3.org/2000/svg" viewBox="0 0 28.5 31.5"><title>rook-white</title><path d="M9,39H36V36H9v3Z" transform="translate(-8.25 -8.25)" style="fill:#fff;stroke:#000;stroke-linejoin:round;stroke-width:1.5px"/><path d="M12,36V32H33v4H12Z" transform="translate(-8.25 -8.25)" style="fill:#fff;stroke:#000;stroke-linejoin:round;stroke-width:1.5px"/><path d="M11,14V9h4v2h5V9h5v2h5V9h4v5" transform="translate(-8.25 -8.25)" style="fill:#fff;stroke:#000;stroke-linejoin:round;stroke-width:1.5px"/><path d="M34,14l-3,3H14l-3-3" transform="translate(-8.25 -8.25)" style="fill:#fff;stroke:#000;stroke-linecap:round;stroke-linejoin:round;stroke-width:1.5px"/><path d="M31,17V29.5H14V17" transform="translate(-8.25 -8.25)" style="fill:#fff;stroke:#000;stroke-width:1.5px"/><path d="M31,29.5L32.5,32h-20L14,29.5" transform="translate(-8.25 -8.25)" style="fill:#fff;stroke:#000;stroke-linecap:round;stroke-linejoin:round;stroke-width:1.5px"/><path d="M11,14H34" transform="translate(-8.25 -8.25)" style="fill:none;stroke:#000;stroke-linecap:round;stroke-width:1.5px"/></svg>