<svg xmlns="http://www.w3.org/2000/svg" viewBox="0 0 28.5 31.5"><title>rook-black</title><path d="M9,41H36V38H9v3Z" transform="translate(-8.25 -10.25)" style="stroke:#000;stroke-linejoin:round;stroke-width:1.5px"/><path d="M12.5,34L14,31.5H31L32.5,34h-20Z" transform="translate(-8.25 -10.25)" style="stroke:#000;stroke-linejoin:round;stroke-width:1.5px"/><path d="M12,38V34H33v4H12Z" transform="translate(-8.25 -10.25)" style="stroke:#000;stroke-linejoin:round;stroke-width:1.5px"/><path d="M14,31.5v-13H31v13H14Z" transform="translate(-8.25 -10.25)" style="stroke:#000;stroke-width:1.5px"/><path d="M14,18.5L11,16H34l-3,2.5H14Z" transform="translate(-8.25 -10.25)" style="stroke:#000;stroke-linejoin:round;stroke-width:1.5px"/><path d="M11,16V11h4v2h5V11h5v2h5V11h4v5H11Z" transform="translate(-8.25 -10.25)" style="stroke:#000;stroke-linejoin:round;stroke-width:1.5px"/><path d="M12,37.5H33" transform="translate(-8.25 -10.25)" style="fill:none;stroke:#fff;stroke-linecap:round"/><path d="M13,33.5H32" transform="translate(-8.25 -10.25)" style="fill:none;stroke:#fff;stroke-linecap:round"/><path d="M14,31.5H31" transform="translate(-8.25 -10.25)" style="fill:none;stroke:#fff;stroke-linecap:round"/><path d="M14,18.5H31" transform="translate(-8.25 -10.25)" style="fill:none;stroke:#fff;stroke-linecap:round"/><path d="M11,16H34" transform="translate(-8.25 -10.25)" style="fill:none;stroke:#fff;stroke-linecap:round"/></svg>