<svg xmlns="http://www.w3.org/2000/svg" viewBox="0 0 34.5 34.83"><title>bishop-white</title><path d="M3.75 31.25c3.4-1 10.1.4 13.5-2 3.4 2.4 10.1 1 13.5 2a7.06 7.06 0 0 1 3 2c-.7 1-1.7 1-3 .5-3.4-1-10.1.5-13.5-1-3.4 1.5-10.1 0-13.5 1-1.4.5-2.3.5-3-.5a4.47 4.47 0 0 1 3-2z" fill="#fff" stroke="#000" stroke-linejoin="round" stroke-width="1.5"/><path d="M9.75 27.25c2.5 2.5 12.5 2.5 15 0 .5-1.5 0-2 0-2 0-2.5-2.5-4-2.5-4 5.5-1.5 6-11.5-5-15.5-11 4-10.5 14-5 15.5 0 0-2.5 1.5-2.5 4 0 0-.5.5 0 2z" fill="#fff" stroke="#000" stroke-linejoin="round" stroke-width="1.5"/><path d="M19.75 3.25a2.5 2.5 0 1 1-2.5-2.5 2.48 2.48 0 0 1 2.5 2.5z" fill="#fff" stroke="#000" stroke-linejoin="round" stroke-width="1.5"/><path d="M12.25 21.25h10m-12.5 4h15m-7.5-14.5v5m-2.5-2.5h5" fill="none" stroke="#000" stroke-linecap="round" stroke-width="1.5"/></svg>