<svg xmlns="http://www.w3.org/2000/svg" viewBox="0 0 34.79 35.13"><defs><style>.a,.d{fill:none}.a,.b,.c{stroke:#000}.a,.c,.d{stroke-linecap:round}.a,.b,.c,.d{stroke-width:1.5px}.c,.d{stroke-linejoin:round}.d{stroke:#fff}</style></defs><title>king-black</title><path class="a" d="M17.42 6.37V.75"/><path class="b" d="M17.42 19.75s4.5-7.5 3-10.5c0 0-1-2.5-3-2.5s-3 2.5-3 2.5c-1.5 3 3 10.5 3 10.5"/><path class="c" d="M6.42 31.75c5.5 3.5 15.5 3.5 21 0v-7s9-4.5 6-10.5c-4-6.5-13.5-3.5-16 4-3.5-7.5-13-10.5-16-4-3 6 5 10 5 10v7.5z"/><path class="a" d="M14.91 2.75h5"/><path class="d" d="M26.91 24.25s8.5-4 6-9.65c-3.88-5.85-13-1.85-15.53 4.65-2.47-6.5-12.55-10.5-15.47-4.65-2.5 5.65 4.85 9 4.85 9"/><path class="d" d="M6.42 24.75c5.5-3 15.5-3 21 0m-21 3.5c5.5-3 15.5-3 21 0m-21 3.5c5.5-3 15.5-3 21 0"/></svg>