<svg xmlns="http://www.w3.org/2000/svg" viewBox="0 0 33.53 33.5"><title>knight-black</title><path d="M16.75 3.75c10.5 1 16.5 8 16 29h-23c0-9 10-6.5 8-21" stroke="#000" stroke-linecap="round" stroke-linejoin="round" stroke-width="1.5"/><path d="M18.75 11.75c.4 2.9-5.5 7.4-8 9-3 2-2.8 4.3-5 4-1-.9 1.4-3 0-3-1 0 .2 1.2-1 2-1 0-4 1-4-4 0-2 6-12 6-12s1.9-1.9 2-3.5a4.59 4.59 0 0 1-.5-3c1-1 3 2.5 3 2.5h2a6.82 6.82 0 0 1 2.5-3c1 0 1 3 1 3" stroke="#000" stroke-linecap="round" stroke-linejoin="round" stroke-width="1.5"/><path d="M4.26 19.25a.5.5 0 1 1-.5-.5.47.47 0 0 1 .5.5zm5.39-9.7c-.4.7-.9 1.2-1.2 1a1.57 1.57 0 0 1 .3-1.5c.4-.7.9-1.2 1.2-1 .31 0 .1.7-.3 1.5z" fill="#fff" stroke="#fff" stroke-linecap="round" stroke-linejoin="round" stroke-width="1.5"/><path d="M19.26 4.15l-.4 1.5.5.1c3.1 1 5.6 2.5 7.9 6.8s3.3 10.3 2.8 20.3v.5h2.3v-.5c.5-10.1-.9-16.9-3.3-21.3s-5.8-6.6-9.2-7.2z" fill="#fff"/></svg>