<svg xmlns="http://www.w3.org/2000/svg" viewBox="0 0 38.6 36"><title>queen-black</title><circle cx="2.8" cy="6.8" r="2.8"/><circle cx="10.8" cy="3.8" r="2.8"/><circle cx="19.3" cy="2.8" r="2.8"/><circle cx="27.8" cy="3.8" r="2.8"/><circle cx="35.8" cy="6.8" r="2.8"/><path d="M5.8 20.8c8.5-1.5 21-1.5 27 0l2.5-12.5-7.5 11.5-.3-14.1-5.2 13.6-3-14.5-3 14.5-5.2-13.6-.3 14.1L3.3 8.3z" stroke="#000" stroke-linejoin="round" stroke-width="1.5"/><path d="M5.8 20.8c0 2 1.5 2 2.5 4 1 1.5 1 1 .5 3.5a3.23 3.23 0 0 0-1.5 2.5c-1.5 1.5.5 2.5.5 2.5a88.54 88.54 0 0 0 23 0s1.5-1 0-2.5a2.22 2.22 0 0 0-1-2.5c-.5-2.5-.5-2 .5-3.5 1-2 2.5-2 2.5-4a81.56 81.56 0 0 0-27 0z" stroke="#000" stroke-linejoin="round" stroke-width="1.5"/><path d="M7.8 33.3a34.89 34.89 0 0 0 23 0" fill="none" stroke="#000" stroke-linejoin="round" stroke-width="1.5"/><path d="M7.8 23.8a34.89 34.89 0 0 1 23 0M9.3 26.3h20m-21 3a34.51 34.51 0 0 0 22 0m-23 3a35.34 35.34 0 0 0 24 0" fill="none" stroke="#fff" stroke-linecap="round" stroke-linejoin="round" stroke-width="1.5"/></svg>