<svg xmlns="http://www.w3.org/2000/svg" viewBox="0 0 28.5 31.5"><title>rook-black</title><path d="M.75 30.75h27v-3h-27v3zm3.5-7l1.5-2.5h17l1.5 2.5h-20zm-.5 4v-4h21v4h-21z" stroke="#000" stroke-linejoin="round" stroke-width="1.5"/><path d="M5.75 21.25v-13h17v13h-17z" stroke="#000" stroke-width="1.5"/><path d="M5.75 8.25l-3-2.5h23l-3 2.5h-17zm-3-2.5v-5h4v2h5v-2h5v2h5v-2h4v5h-23z" stroke="#000" stroke-linejoin="round" stroke-width="1.5"/><path d="M3.75 27.25h21m-20-4h19m-18-2h17m-17-13h17m-20-2.5h23" fill="none" stroke="#fff" stroke-linecap="round"/></svg>